<svg xmlns="http://www.w3.org/2000/svg" viewBox="0 0 1920 1080" preserveAspectRatio="xMidYMid slice">
  <!-- Background -->
  <rect width="100%" height="100%" fill="#121212" />
  
  <!-- Definitions for filters and gradients -->
  <defs>
    <!-- Filter for glow effect -->
    <filter id="glow" x="-20%" y="-20%" width="140%" height="140%">
      <feGaussianBlur in="SourceGraphic" stdDeviation="4" />
      <feComponentTransfer>
        <feFuncA type="linear" slope="0.3" />
      </feComponentTransfer>
      <feMerge>
        <feMergeNode />
        <feMergeNode in="SourceGraphic" />
      </feMerge>
    </filter>
    
    <!-- Gradient for lines -->
    <linearGradient id="lineGradient1" x1="0%" y1="0%" x2="100%" y2="0%">
      <stop offset="0%" stop-color="#4a88c8" stop-opacity="0.25" />
      <stop offset="50%" stop-color="#6ba5e7" stop-opacity="0.35" />
      <stop offset="100%" stop-color="#4a88c8" stop-opacity="0.25" />
    </linearGradient>
    
    <linearGradient id="lineGradient2" x1="0%" y1="0%" x2="100%" y2="0%">
      <stop offset="0%" stop-color="#5e6ad2" stop-opacity="0.20" />
      <stop offset="50%" stop-color="#7d88e7" stop-opacity="0.30" />
      <stop offset="100%" stop-color="#5e6ad2" stop-opacity="0.20" />
    </linearGradient>
    
    <linearGradient id="lineGradient3" x1="0%" y1="0%" x2="100%" y2="0%">
      <stop offset="0%" stop-color="#38b2ac" stop-opacity="0.15" />
      <stop offset="50%" stop-color="#4fd1c5" stop-opacity="0.25" />
      <stop offset="100%" stop-color="#38b2ac" stop-opacity="0.15" />
    </linearGradient>
  </defs>
  
  <!-- Flowing lines with glow effect for dark mode -->
  <!-- First wave group - covering full width -->
  <g filter="url(#glow)">
    <path d="M-200,400 C200,300 600,200 1000,250 C1400,300 1800,400 2200,300" fill="none" stroke="url(#lineGradient1)" stroke-width="2" />
    <path d="M-200,430 C200,330 600,230 1000,280 C1400,330 1800,430 2200,330" fill="none" stroke="url(#lineGradient1)" stroke-width="2" />
    <path d="M-200,460 C200,360 600,260 1000,310 C1400,360 1800,460 2200,360" fill="none" stroke="url(#lineGradient1)" stroke-width="2" />
    <path d="M-200,490 C200,390 600,290 1000,340 C1400,390 1800,490 2200,390" fill="none" stroke="url(#lineGradient1)" stroke-width="2" />
    <path d="M-200,520 C200,420 600,320 1000,370 C1400,420 1800,520 2200,420" fill="none" stroke="url(#lineGradient1)" stroke-width="2" />
  </g>
  
  <!-- Second wave group - top section -->
  <g filter="url(#glow)">
    <path d="M-200,200 C100,300 500,350 900,250 C1300,150 1700,200 2100,300" fill="none" stroke="url(#lineGradient2)" stroke-width="2" />
    <path d="M-200,230 C100,330 500,380 900,280 C1300,180 1700,230 2100,330" fill="none" stroke="url(#lineGradient2)" stroke-width="2" />
    <path d="M-200,260 C100,360 500,410 900,310 C1300,210 1700,260 2100,360" fill="none" stroke="url(#lineGradient2)" stroke-width="2" />
  </g>
  
  <!-- Bottom wave group with teal accent -->
  <g filter="url(#glow)">
    <path d="M-200,700 C200,800 600,750 1000,650 C1400,550 1800,600 2200,700" fill="none" stroke="url(#lineGradient3)" stroke-width="2" />
    <path d="M-200,730 C200,830 600,780 1000,680 C1400,580 1800,630 2200,730" fill="none" stroke="url(#lineGradient3)" stroke-width="2" />
    <path d="M-200,760 C200,860 600,810 1000,710 C1400,610 1800,660 2200,760" fill="none" stroke="url(#lineGradient3)" stroke-width="2" />
  </g>
  
  <!-- Additional decorative elements with subtle accent colors -->
  <g filter="url(#glow)">
    <path d="M300,0 C350,300 250,600 300,900 C350,1200 450,1500 500,1800" fill="none" stroke="#4fd1c5" stroke-width="1.5" opacity="0.15" />
    <path d="M320,0 C370,300 270,600 320,900 C370,1200 470,1500 520,1800" fill="none" stroke="#4fd1c5" stroke-width="1.5" opacity="0.15" />
    
    <path d="M1600,0 C1650,300 1550,600 1600,900 C1650,1200 1750,1500 1800,1800" fill="none" stroke="#6ba5e7" stroke-width="1.5" opacity="0.15" />
    <path d="M1620,0 C1670,300 1570,600 1620,900 C1670,1200 1770,1500 1820,1800" fill="none" stroke="#6ba5e7" stroke-width="1.5" opacity="0.15" />
  </g>
  
  <!-- Subtle particle effects -->
  <g opacity="0.2">
    <circle cx="400" cy="200" r="2" fill="#6ba5e7" />
    <circle cx="900" cy="300" r="1.5" fill="#6ba5e7" />
    <circle cx="1300" cy="200" r="2" fill="#6ba5e7" />
    <circle cx="1700" cy="350" r="1.5" fill="#6ba5e7" />
    
    <circle cx="600" cy="600" r="2" fill="#4fd1c5" />
    <circle cx="1100" cy="700" r="1.5" fill="#4fd1c5" />
    <circle cx="1500" cy="650" r="2" fill="#4fd1c5" />
    <circle cx="300" cy="750" r="1.5" fill="#4fd1c5" />
  </g>
</svg>