<svg viewBox="0 0 100 120" xmlns="http://www.w3.org/2000/svg">
  <!-- Background flowing curves that match webpage design -->
  <path d="M 10,110 C 30,90 20,30 50,20 C 80,10 90,80 90,110" 
        fill="none" stroke="#e6e9f0" stroke-width="1.5" />
  <path d="M 0,100 C 20,80 30,20 60,10 C 90,0 100,70 100,100" 
        fill="none" stroke="#e6e9f0" stroke-width="1.5" />
  
  <!-- Main stem of the P - more professional looking -->
  <path d="M 20,20 L 20,100 L 35,100 L 35,60 L 35,20 L 20,20 Z" 
        fill="#333333" stroke="none" />
  
  <!-- Curved part of the P - more modern and professional -->
  <path d="M 35,20 C 70,20 80,30 80,40 C 80,50 70,60 35,60 Z" 
        fill="#333333" stroke="none" />
  
  <!-- Subtle gradient effect -->
  <path d="M 23,23 L 23,97 L 32,97 L 32,57 L 32,23 L 23,23 Z" 
        fill="#444444" stroke="none" />
  
  <path d="M 32,23 C 67,23 76,31 76,40 C 76,48 67,57 32,57 Z" 
        fill="#444444" stroke="none" />
</svg>
