<svg xmlns="http://www.w3.org/2000/svg" viewBox="0 0 1920 1080" preserveAspectRatio="xMidYMid slice">
  <!-- Background -->
  <rect width="100%" height="100%" fill="#ffffff" />
  
  <!-- Definitions for filters and gradients -->
  <defs>
    <!-- Filter for shadow effect -->
    <filter id="shadow" x="-20%" y="-20%" width="140%" height="140%">
      <feGaussianBlur in="SourceAlpha" stdDeviation="3" />
      <feOffset dx="2" dy="2" result="offsetblur" />
      <feComponentTransfer>
        <feFuncA type="linear" slope="0.4" />
      </feComponentTransfer>
      <feMerge>
        <feMergeNode />
        <feMergeNode in="SourceGraphic" />
      </feMerge>
    </filter>
    
    <!-- Gradient for lines -->
    <linearGradient id="lineGradient1" x1="0%" y1="0%" x2="100%" y2="0%">
      <stop offset="0%" stop-color="#3a6a97" stop-opacity="0.35" />
      <stop offset="50%" stop-color="#5b84b9" stop-opacity="0.45" />
      <stop offset="100%" stop-color="#3a6a97" stop-opacity="0.35" />
    </linearGradient>
    
    <linearGradient id="lineGradient2" x1="0%" y1="0%" x2="100%" y2="0%">
      <stop offset="0%" stop-color="#4f6a97" stop-opacity="0.30" />
      <stop offset="50%" stop-color="#6b84b9" stop-opacity="0.40" />
      <stop offset="100%" stop-color="#4f6a97" stop-opacity="0.30" />
    </linearGradient>
  </defs>
  
  <!-- Flowing lines with increased opacity and gradient colors -->
  <!-- First wave group - covering full width -->
  <g filter="url(#shadow)">
    <path d="M-200,400 C200,300 600,200 1000,250 C1400,300 1800,400 2200,300" fill="none" stroke="url(#lineGradient1)" stroke-width="2" />
    <path d="M-200,430 C200,330 600,230 1000,280 C1400,330 1800,430 2200,330" fill="none" stroke="url(#lineGradient1)" stroke-width="2" />
    <path d="M-200,460 C200,360 600,260 1000,310 C1400,360 1800,460 2200,360" fill="none" stroke="url(#lineGradient1)" stroke-width="2" />
    <path d="M-200,490 C200,390 600,290 1000,340 C1400,390 1800,490 2200,390" fill="none" stroke="url(#lineGradient1)" stroke-width="2" />
    <path d="M-200,520 C200,420 600,320 1000,370 C1400,420 1800,520 2200,420" fill="none" stroke="url(#lineGradient1)" stroke-width="2" />
    <path d="M-200,550 C200,450 600,350 1000,400 C1400,450 1800,550 2200,450" fill="none" stroke="url(#lineGradient1)" stroke-width="2" />
  </g>
  
  <!-- Second wave group - top section -->
  <g filter="url(#shadow)">
    <path d="M-200,200 C100,300 500,350 900,250 C1300,150 1700,200 2100,300" fill="none" stroke="url(#lineGradient2)" stroke-width="2" />
    <path d="M-200,230 C100,330 500,380 900,280 C1300,180 1700,230 2100,330" fill="none" stroke="url(#lineGradient2)" stroke-width="2" />
    <path d="M-200,260 C100,360 500,410 900,310 C1300,210 1700,260 2100,360" fill="none" stroke="url(#lineGradient2)" stroke-width="2" />
    <path d="M-200,290 C100,390 500,440 900,340 C1300,240 1700,290 2100,390" fill="none" stroke="url(#lineGradient2)" stroke-width="2" />
  </g>
  
  <!-- Bottom wave group -->
  <g filter="url(#shadow)">
    <path d="M-200,700 C200,800 600,750 1000,650 C1400,550 1800,600 2200,700" fill="none" stroke="url(#lineGradient1)" stroke-width="2" opacity="0.7" />
    <path d="M-200,730 C200,830 600,780 1000,680 C1400,580 1800,630 2200,730" fill="none" stroke="url(#lineGradient1)" stroke-width="2" opacity="0.7" />
    <path d="M-200,760 C200,860 600,810 1000,710 C1400,610 1800,660 2200,760" fill="none" stroke="url(#lineGradient1)" stroke-width="2" opacity="0.7" />
    <path d="M-200,790 C200,890 600,840 1000,740 C1400,640 1800,690 2200,790" fill="none" stroke="url(#lineGradient1)" stroke-width="2" opacity="0.7" />
  </g>
  
  <!-- Additional decorative elements -->
  <g filter="url(#shadow)">
    <!-- Flowing vertical elements for added interest -->
    <path d="M300,0 C350,300 250,600 300,900 C350,1200 450,1500 500,1800" fill="none" stroke="#5b84b9" stroke-width="1.5" opacity="0.3" />
    <path d="M320,0 C370,300 270,600 320,900 C370,1200 470,1500 520,1800" fill="none" stroke="#5b84b9" stroke-width="1.5" opacity="0.3" />
    
    <path d="M1200,0 C1250,300 1150,600 1200,900 C1250,1200 1350,1500 1400,1800" fill="none" stroke="#5b84b9" stroke-width="1.5" opacity="0.3" />
    <path d="M1220,0 C1270,300 1170,600 1220,900 C1270,1200 1370,1500 1420,1800" fill="none" stroke="#5b84b9" stroke-width="1.5" opacity="0.3" />
    
    <path d="M1600,0 C1650,300 1550,600 1600,900 C1650,1200 1750,1500 1800,1800" fill="none" stroke="#5b84b9" stroke-width="1.5" opacity="0.3" />
    <path d="M1620,0 C1670,300 1570,600 1620,900 C1670,1200 1770,1500 1820,1800" fill="none" stroke="#5b84b9" stroke-width="1.5" opacity="0.3" />
  </g>
</svg>