<svg xmlns="http://www.w3.org/2000/svg" viewBox="0 0 1200 400">
  <!-- Background -->
  <rect width="100%" height="100%" fill="#ffffff" />
  
  <!-- Definitions for filters and gradients -->
  <defs>
    <!-- Filter for shadow effect -->
    <filter id="shadow" x="-20%" y="-20%" width="140%" height="140%">
      <feGaussianBlur in="SourceAlpha" stdDeviation="2" />
      <feOffset dx="1" dy="1" result="offsetblur" />
      <feComponentTransfer>
        <feFuncA type="linear" slope="0.3" />
      </feComponentTransfer>
      <feMerge>
        <feMergeNode />
        <feMergeNode in="SourceGraphic" />
      </feMerge>
    </filter>
    
    <!-- Gradient for lines -->
    <linearGradient id="lineGradient1" x1="0%" y1="0%" x2="100%" y2="0%">
      <stop offset="0%" stop-color="#4a7aa7" stop-opacity="0.2" />
      <stop offset="50%" stop-color="#6b94c9" stop-opacity="0.3" />
      <stop offset="100%" stop-color="#4a7aa7" stop-opacity="0.2" />
    </linearGradient>
    
    <linearGradient id="lineGradient2" x1="0%" y1="0%" x2="100%" y2="0%">
      <stop offset="0%" stop-color="#5f7aa7" stop-opacity="0.15" />
      <stop offset="50%" stop-color="#7b94c9" stop-opacity="0.25" />
      <stop offset="100%" stop-color="#5f7aa7" stop-opacity="0.15" />
    </linearGradient>
  </defs>
  
  <!-- Flowing lines with increased opacity and gradient colors -->
  <!-- First wave group -->
  <g filter="url(#shadow)">
    <path d="M-100,300 C100,250 200,100 400,150 C600,200 700,300 900,250 C1100,200 1200,100 1400,150" fill="none" stroke="url(#lineGradient1)" stroke-width="1.5" />
    <path d="M-100,310 C100,260 200,110 400,160 C600,210 700,310 900,260 C1100,210 1200,110 1400,160" fill="none" stroke="url(#lineGradient1)" stroke-width="1.5" />
    <path d="M-100,320 C100,270 200,120 400,170 C600,220 700,320 900,270 C1100,220 1200,120 1400,170" fill="none" stroke="url(#lineGradient1)" stroke-width="1.5" />
    <path d="M-100,330 C100,280 200,130 400,180 C600,230 700,330 900,280 C1100,230 1200,130 1400,180" fill="none" stroke="url(#lineGradient1)" stroke-width="1.5" />
    <path d="M-100,340 C100,290 200,140 400,190 C600,240 700,340 900,290 C1100,240 1200,140 1400,190" fill="none" stroke="url(#lineGradient1)" stroke-width="1.5" />
  </g>
  
  <!-- Second wave group with different curve -->
  <g filter="url(#shadow)">
    <path d="M-100,100 C50,200 300,250 500,150 C700,50 900,100 1100,200 C1300,300 1400,250 1600,150" fill="none" stroke="url(#lineGradient2)" stroke-width="1.5" />
    <path d="M-100,110 C50,210 300,260 500,160 C700,60 900,110 1100,210 C1300,310 1400,260 1600,160" fill="none" stroke="url(#lineGradient2)" stroke-width="1.5" />
    <path d="M-100,120 C50,220 300,270 500,170 C700,70 900,120 1100,220 C1300,320 1400,270 1600,170" fill="none" stroke="url(#lineGradient2)" stroke-width="1.5" />
    <path d="M-100,130 C50,230 300,280 500,180 C700,80 900,130 1100,230 C1300,330 1400,280 1600,180" fill="none" stroke="url(#lineGradient2)" stroke-width="1.5" />
  </g>
  
  <!-- Third wave group - subtle intersecting pattern -->
  <g filter="url(#shadow)">
    <path d="M300,0 C350,100 250,200 300,300 C350,400 450,350 500,450" fill="none" stroke="#6b94c9" stroke-width="1" opacity="0.2" />
    <path d="M320,0 C370,100 270,200 320,300 C370,400 470,350 520,450" fill="none" stroke="#6b94c9" stroke-width="1" opacity="0.2" />
    <path d="M340,0 C390,100 290,200 340,300 C390,400 490,350 540,450" fill="none" stroke="#6b94c9" stroke-width="1" opacity="0.2" />
    
    <path d="M700,0 C750,100 650,200 700,300 C750,400 850,350 900,450" fill="none" stroke="#6b94c9" stroke-width="1" opacity="0.2" />
    <path d="M720,0 C770,100 670,200 720,300 C770,400 870,350 920,450" fill="none" stroke="#6b94c9" stroke-width="1" opacity="0.2" />
    <path d="M740,0 C790,100 690,200 740,300 C790,400 890,350 940,450" fill="none" stroke="#6b94c9" stroke-width="1" opacity="0.2" />
    
    <path d="M1000,0 C1050,100 950,200 1000,300 C1050,400 1150,350 1200,450" fill="none" stroke="#6b94c9" stroke-width="1" opacity="0.2" />
    <path d="M1020,0 C1070,100 970,200 1020,300 C1070,400 1170,350 1220,450" fill="none" stroke="#6b94c9" stroke-width="1" opacity="0.2" />
    <path d="M1040,0 C1090,100 990,200 1040,300 C1090,400 1190,350 1240,450" fill="none" stroke="#6b94c9" stroke-width="1" opacity="0.2" />
  </g>
</svg>