<?xml version="1.0" encoding="UTF-8"?>
<svg viewBox="0 0 400 400" xmlns="http://www.w3.org/2000/svg">
  <rect width="400" height="400" fill="#F7DF1E"/>
  <path d="M105.604 333.928L133.932 317.066C139.535 327.353 144.66 336.086 157.517 336.086C169.897 336.086 177.659 331.293 177.659 312.273V184.845H213.133V312.75C213.133 349.35 190.994 365.954 159.198 365.954C130.63 365.954 113.844 351.509 105.604 333.452M234.793 330.817L263.122 314.909C270.883 328.306 280.932 338.117 299.075 338.117C314.309 338.117 324.119 330.578 324.119 320.29C324.119 307.957 314.309 303.64 297.762 296.356L288.429 292.515C262.168 281.751 244.902 268.116 244.902 238.598C244.902 211.63 265.28 191.893 297.523 191.893C321.104 191.893 338.129 200.865 350.509 223.004L323.405 240.106C317.323 228.036 310.73 223.957 297.523 223.957C284.077 223.957 275.819 232.114 275.819 240.106C275.819 250.154 284.077 254.471 299.314 261.277L308.646 265.118C339.44 277.912 356.706 291.071 356.706 321.544C356.706 353.778 331.42 370.269 300.148 370.269C269.593 370.269 247.214 355.586 234.793 330.817" fill="#000001"/>
</svg>